<mxfile host="app.diagrams.net" agent="Mozilla/5.0 (Windows NT 10.0; Win64; x64) AppleWebKit/537.36 (KHTML, like Gecko) Chrome/134.0.0.0 Safari/537.36" version="26.1.1">
  <diagram name="PÃ¡gina-1" id="Suqh25XtMWmDNERWJQi5">
    <mxGraphModel dx="1909" dy="855" grid="1" gridSize="10" guides="1" tooltips="1" connect="1" arrows="1" fold="1" page="1" pageScale="1" pageWidth="827" pageHeight="1169" math="0" shadow="0">
      <root>
        <mxCell id="0" />
        <mxCell id="1" parent="0" />
        <mxCell id="lDDoWcWHIVTTK4VwXgrd-1" value="&lt;b&gt;&lt;font&gt;__workerid&lt;/font&gt;&lt;/b&gt;" style="ellipse;whiteSpace=wrap;html=1;fillColor=#d80073;fontColor=#ffffff;strokeColor=#A50040;fontSize=10;" parent="1" vertex="1">
          <mxGeometry x="375" y="290" width="90" height="50" as="geometry" />
        </mxCell>
        <mxCell id="lDDoWcWHIVTTK4VwXgrd-2" value="identifier&lt;div&gt;sio:&lt;span style=&quot;font-family: &amp;quot;IBM Plex Sans&amp;quot;, Helvetica, Arial, sans-serif; text-align: start; background-color: transparent;&quot;&gt;SIO_000115&lt;/span&gt;&lt;/div&gt;" style="rounded=1;whiteSpace=wrap;html=1;fillColor=#6d8764;fontColor=#F5F5F5;strokeColor=#3A5431;fontSize=10;" parent="1" vertex="1">
          <mxGeometry x="345" y="200" width="80" height="40" as="geometry" />
        </mxCell>
        <mxCell id="lDDoWcWHIVTTK4VwXgrd-3" value="" style="endArrow=classic;html=1;rounded=0;exitX=0.5;exitY=0;exitDx=0;exitDy=0;entryX=0.5;entryY=1;entryDx=0;entryDy=0;" parent="1" source="lDDoWcWHIVTTK4VwXgrd-1" target="lDDoWcWHIVTTK4VwXgrd-2" edge="1">
          <mxGeometry relative="1" as="geometry">
            <mxPoint x="385" y="280" as="sourcePoint" />
            <mxPoint x="405" y="250" as="targetPoint" />
          </mxGeometry>
        </mxCell>
        <mxCell id="lDDoWcWHIVTTK4VwXgrd-4" value="rdf:type" style="edgeLabel;resizable=0;html=1;;align=center;verticalAlign=middle;fontSize=9;" parent="lDDoWcWHIVTTK4VwXgrd-3" connectable="0" vertex="1">
          <mxGeometry relative="1" as="geometry">
            <mxPoint y="-5" as="offset" />
          </mxGeometry>
        </mxCell>
        <mxCell id="lDDoWcWHIVTTK4VwXgrd-5" value="" style="endArrow=classic;html=1;rounded=0;exitX=0.5;exitY=0;exitDx=0;exitDy=0;" parent="1" source="lDDoWcWHIVTTK4VwXgrd-1" target="lDDoWcWHIVTTK4VwXgrd-7" edge="1">
          <mxGeometry relative="1" as="geometry">
            <mxPoint x="385" y="320" as="sourcePoint" />
            <mxPoint x="475" y="260" as="targetPoint" />
          </mxGeometry>
        </mxCell>
        <mxCell id="lDDoWcWHIVTTK4VwXgrd-6" value="has-value&lt;div&gt;sio:SIO_000300&lt;/div&gt;" style="edgeLabel;resizable=0;html=1;;align=center;verticalAlign=middle;fontSize=9;" parent="lDDoWcWHIVTTK4VwXgrd-5" connectable="0" vertex="1">
          <mxGeometry relative="1" as="geometry">
            <mxPoint x="8" as="offset" />
          </mxGeometry>
        </mxCell>
        <mxCell id="lDDoWcWHIVTTK4VwXgrd-7" value="1234" style="rounded=0;whiteSpace=wrap;html=1;fillColor=#eeeeee;strokeColor=#36393d;fontSize=10;" parent="1" vertex="1">
          <mxGeometry x="465" y="210" width="30" height="20" as="geometry" />
        </mxCell>
        <mxCell id="lDDoWcWHIVTTK4VwXgrd-8" value="" style="endArrow=classic;html=1;rounded=0;exitX=1;exitY=0;exitDx=0;exitDy=0;entryX=0.052;entryY=0.738;entryDx=0;entryDy=0;entryPerimeter=0;" parent="1" source="lDDoWcWHIVTTK4VwXgrd-1" target="lDDoWcWHIVTTK4VwXgrd-10" edge="1">
          <mxGeometry relative="1" as="geometry">
            <mxPoint x="565" y="320" as="sourcePoint" />
            <mxPoint x="595" y="230" as="targetPoint" />
          </mxGeometry>
        </mxCell>
        <mxCell id="lDDoWcWHIVTTK4VwXgrd-9" value="has-identifier&lt;div&gt;sio:&lt;span style=&quot;font-family: &amp;quot;IBM Plex Sans&amp;quot;, Helvetica, Arial, sans-serif; text-align: start; text-wrap-mode: wrap; background-color: light-dark(#ffffff, var(--ge-dark-color, #121212));&quot;&gt;SIO_000671&lt;/span&gt;&lt;/div&gt;" style="edgeLabel;resizable=0;html=1;;align=center;verticalAlign=middle;fontSize=9;fontColor=light-dark(#0a0a0a, #ededed);" parent="lDDoWcWHIVTTK4VwXgrd-8" connectable="0" vertex="1">
          <mxGeometry relative="1" as="geometry">
            <mxPoint x="4" y="4" as="offset" />
          </mxGeometry>
        </mxCell>
        <mxCell id="lDDoWcWHIVTTK4VwXgrd-10" value="__id" style="ellipse;whiteSpace=wrap;html=1;fillColor=#f8cecc;strokeColor=#b85450;fontSize=10;" parent="1" vertex="1">
          <mxGeometry x="575" y="210" width="60" height="40" as="geometry" />
        </mxCell>
        <mxCell id="lDDoWcWHIVTTK4VwXgrd-11" value="ORCID identifier&lt;div&gt;iao:&lt;span style=&quot;font-family: &amp;quot;IBM Plex Sans&amp;quot;, Helvetica, Arial, sans-serif; text-align: start; background-color: transparent;&quot;&gt;IAO_0000708&lt;/span&gt;&lt;/div&gt;" style="rounded=1;whiteSpace=wrap;html=1;fillColor=#6d8764;fontColor=#F9F9F9;strokeColor=#3A5431;fontSize=10;" parent="1" vertex="1">
          <mxGeometry x="522" y="130" width="95" height="40" as="geometry" />
        </mxCell>
        <mxCell id="lDDoWcWHIVTTK4VwXgrd-12" value="" style="endArrow=classic;html=1;rounded=0;entryX=0.5;entryY=1;entryDx=0;entryDy=0;exitX=0.5;exitY=0;exitDx=0;exitDy=0;" parent="1" source="lDDoWcWHIVTTK4VwXgrd-10" target="lDDoWcWHIVTTK4VwXgrd-11" edge="1">
          <mxGeometry relative="1" as="geometry">
            <mxPoint x="625" y="220" as="sourcePoint" />
            <mxPoint x="610" y="180" as="targetPoint" />
          </mxGeometry>
        </mxCell>
        <mxCell id="lDDoWcWHIVTTK4VwXgrd-13" value="rdf:type" style="edgeLabel;resizable=0;html=1;;align=center;verticalAlign=middle;fontSize=9;" parent="lDDoWcWHIVTTK4VwXgrd-12" connectable="0" vertex="1">
          <mxGeometry relative="1" as="geometry">
            <mxPoint y="-5" as="offset" />
          </mxGeometry>
        </mxCell>
        <mxCell id="lDDoWcWHIVTTK4VwXgrd-14" value="" style="endArrow=classic;html=1;rounded=0;exitX=0.5;exitY=0;exitDx=0;exitDy=0;" parent="1" source="lDDoWcWHIVTTK4VwXgrd-10" target="lDDoWcWHIVTTK4VwXgrd-16" edge="1">
          <mxGeometry relative="1" as="geometry">
            <mxPoint x="625" y="220" as="sourcePoint" />
            <mxPoint x="680" y="190" as="targetPoint" />
          </mxGeometry>
        </mxCell>
        <mxCell id="lDDoWcWHIVTTK4VwXgrd-15" value="has-value&lt;div&gt;sio:SIO_000300&lt;/div&gt;" style="edgeLabel;resizable=0;html=1;;align=center;verticalAlign=middle;fontSize=9;" parent="lDDoWcWHIVTTK4VwXgrd-14" connectable="0" vertex="1">
          <mxGeometry relative="1" as="geometry">
            <mxPoint x="8" as="offset" />
          </mxGeometry>
        </mxCell>
        <mxCell id="lDDoWcWHIVTTK4VwXgrd-16" value="1234-5678-9012" style="rounded=0;whiteSpace=wrap;html=1;fillColor=#eeeeee;strokeColor=#36393d;fontSize=10;" parent="1" vertex="1">
          <mxGeometry x="625" y="140" width="85" height="20" as="geometry" />
        </mxCell>
        <mxCell id="lDDoWcWHIVTTK4VwXgrd-17" value="" style="endArrow=classic;html=1;rounded=0;entryX=0;entryY=0.5;entryDx=0;entryDy=0;" parent="1" target="lDDoWcWHIVTTK4VwXgrd-19" edge="1">
          <mxGeometry relative="1" as="geometry">
            <mxPoint x="465" y="315" as="sourcePoint" />
            <mxPoint x="565" y="314.58" as="targetPoint" />
          </mxGeometry>
        </mxCell>
        <mxCell id="lDDoWcWHIVTTK4VwXgrd-18" value="foaf:mbox" style="edgeLabel;resizable=0;html=1;;align=center;verticalAlign=middle;fontSize=9;" parent="lDDoWcWHIVTTK4VwXgrd-17" connectable="0" vertex="1">
          <mxGeometry relative="1" as="geometry" />
        </mxCell>
        <mxCell id="lDDoWcWHIVTTK4VwXgrd-19" value="email address" style="ellipse;whiteSpace=wrap;html=1;fillColor=#f8cecc;strokeColor=#b85450;fontSize=10;" parent="1" vertex="1">
          <mxGeometry x="585" y="270" width="80" height="50" as="geometry" />
        </mxCell>
        <mxCell id="lDDoWcWHIVTTK4VwXgrd-21" value="email address&lt;div&gt;sio:&lt;span style=&quot;color: rgb(102 102 102 / var(--tw-text-opacity)); font-family: &amp;quot;IBM Plex Sans&amp;quot;, Helvetica, Arial, sans-serif; text-align: start; background-color: transparent;&quot;&gt;SIO_001323&lt;/span&gt;&lt;/div&gt;" style="rounded=1;whiteSpace=wrap;html=1;fillColor=#6d8764;fontColor=#F9F9F9;strokeColor=#3A5431;fontSize=10;" parent="1" vertex="1">
          <mxGeometry x="685" y="180" width="80" height="40" as="geometry" />
        </mxCell>
        <mxCell id="lDDoWcWHIVTTK4VwXgrd-22" value="" style="endArrow=classic;html=1;rounded=0;entryX=0.25;entryY=1;entryDx=0;entryDy=0;exitX=0.638;exitY=0.04;exitDx=0;exitDy=0;exitPerimeter=0;" parent="1" source="lDDoWcWHIVTTK4VwXgrd-19" target="lDDoWcWHIVTTK4VwXgrd-21" edge="1">
          <mxGeometry relative="1" as="geometry">
            <mxPoint x="795" y="250" as="sourcePoint" />
            <mxPoint x="780" y="210" as="targetPoint" />
          </mxGeometry>
        </mxCell>
        <mxCell id="lDDoWcWHIVTTK4VwXgrd-23" value="rdf:type" style="edgeLabel;resizable=0;html=1;;align=center;verticalAlign=middle;fontSize=9;" parent="lDDoWcWHIVTTK4VwXgrd-22" connectable="0" vertex="1">
          <mxGeometry relative="1" as="geometry">
            <mxPoint x="-7" y="2" as="offset" />
          </mxGeometry>
        </mxCell>
        <mxCell id="lDDoWcWHIVTTK4VwXgrd-24" value="" style="endArrow=classic;html=1;rounded=0;exitX=0.921;exitY=0.267;exitDx=0;exitDy=0;exitPerimeter=0;" parent="1" source="lDDoWcWHIVTTK4VwXgrd-19" target="lDDoWcWHIVTTK4VwXgrd-26" edge="1">
          <mxGeometry relative="1" as="geometry">
            <mxPoint x="795" y="250" as="sourcePoint" />
            <mxPoint x="850" y="220" as="targetPoint" />
          </mxGeometry>
        </mxCell>
        <mxCell id="lDDoWcWHIVTTK4VwXgrd-25" value="has-value&lt;div&gt;sio:SIO_000300&lt;/div&gt;" style="edgeLabel;resizable=0;html=1;;align=center;verticalAlign=middle;fontSize=9;" parent="lDDoWcWHIVTTK4VwXgrd-24" connectable="0" vertex="1">
          <mxGeometry relative="1" as="geometry">
            <mxPoint x="5" y="2" as="offset" />
          </mxGeometry>
        </mxCell>
        <mxCell id="lDDoWcWHIVTTK4VwXgrd-26" value="abc.def@upm.es" style="rounded=0;whiteSpace=wrap;html=1;fillColor=#eeeeee;strokeColor=#36393d;fontSize=10;" parent="1" vertex="1">
          <mxGeometry x="733.5" y="230" width="85" height="20" as="geometry" />
        </mxCell>
        <mxCell id="lDDoWcWHIVTTK4VwXgrd-27" value="" style="endArrow=classic;html=1;rounded=0;exitX=0.952;exitY=0.72;exitDx=0;exitDy=0;exitPerimeter=0;entryX=0;entryY=0.5;entryDx=0;entryDy=0;" parent="1" source="lDDoWcWHIVTTK4VwXgrd-1" target="lDDoWcWHIVTTK4VwXgrd-29" edge="1">
          <mxGeometry relative="1" as="geometry">
            <mxPoint x="495" y="360" as="sourcePoint" />
            <mxPoint x="615" y="340" as="targetPoint" />
          </mxGeometry>
        </mxCell>
        <mxCell id="lDDoWcWHIVTTK4VwXgrd-28" value="foaf:Person" style="edgeLabel;resizable=0;html=1;;align=center;verticalAlign=middle;fontSize=9;" parent="lDDoWcWHIVTTK4VwXgrd-27" connectable="0" vertex="1">
          <mxGeometry relative="1" as="geometry" />
        </mxCell>
        <mxCell id="lDDoWcWHIVTTK4VwXgrd-29" value="name" style="ellipse;whiteSpace=wrap;html=1;fillColor=#f8cecc;strokeColor=#b85450;fontSize=10;" parent="1" vertex="1">
          <mxGeometry x="585" y="330" width="60" height="40" as="geometry" />
        </mxCell>
        <mxCell id="lDDoWcWHIVTTK4VwXgrd-30" value="personal name&lt;div&gt;sio:&lt;span style=&quot;font-family: &amp;quot;IBM Plex Sans&amp;quot;, Helvetica, Arial, sans-serif; text-align: start; background-color: transparent;&quot;&gt;SIO_000183&lt;/span&gt;&lt;/div&gt;" style="rounded=1;whiteSpace=wrap;html=1;fillColor=#6d8764;fontColor=light-dark(#ffffff, #171717);strokeColor=#3A5431;fontSize=10;" parent="1" vertex="1">
          <mxGeometry x="724.5" y="295" width="80" height="40" as="geometry" />
        </mxCell>
        <mxCell id="lDDoWcWHIVTTK4VwXgrd-31" value="" style="endArrow=classic;html=1;rounded=0;entryX=0;entryY=0.5;entryDx=0;entryDy=0;exitX=1;exitY=0;exitDx=0;exitDy=0;" parent="1" source="lDDoWcWHIVTTK4VwXgrd-29" target="lDDoWcWHIVTTK4VwXgrd-30" edge="1">
          <mxGeometry relative="1" as="geometry">
            <mxPoint x="676" y="438" as="sourcePoint" />
            <mxPoint x="790" y="380" as="targetPoint" />
          </mxGeometry>
        </mxCell>
        <mxCell id="lDDoWcWHIVTTK4VwXgrd-32" value="rdf:type" style="edgeLabel;resizable=0;html=1;;align=center;verticalAlign=middle;fontSize=9;" parent="lDDoWcWHIVTTK4VwXgrd-31" connectable="0" vertex="1">
          <mxGeometry relative="1" as="geometry">
            <mxPoint x="-7" y="2" as="offset" />
          </mxGeometry>
        </mxCell>
        <mxCell id="lDDoWcWHIVTTK4VwXgrd-33" value="" style="endArrow=classic;html=1;rounded=0;exitX=1;exitY=0.5;exitDx=0;exitDy=0;" parent="1" source="lDDoWcWHIVTTK4VwXgrd-29" target="lDDoWcWHIVTTK4VwXgrd-35" edge="1">
          <mxGeometry relative="1" as="geometry">
            <mxPoint x="699" y="449" as="sourcePoint" />
            <mxPoint x="860" y="390" as="targetPoint" />
          </mxGeometry>
        </mxCell>
        <mxCell id="lDDoWcWHIVTTK4VwXgrd-34" value="has-value&lt;div&gt;sio:SIO_000300&lt;/div&gt;" style="edgeLabel;resizable=0;html=1;;align=center;verticalAlign=middle;fontSize=9;" parent="lDDoWcWHIVTTK4VwXgrd-33" connectable="0" vertex="1">
          <mxGeometry relative="1" as="geometry">
            <mxPoint x="-2" y="2" as="offset" />
          </mxGeometry>
        </mxCell>
        <mxCell id="lDDoWcWHIVTTK4VwXgrd-35" value="Pepe PÃ©rez PÃ©rez" style="rounded=0;whiteSpace=wrap;html=1;fillColor=#eeeeee;strokeColor=#36393d;fontSize=10;" parent="1" vertex="1">
          <mxGeometry x="737" y="340" width="85" height="20" as="geometry" />
        </mxCell>
        <mxCell id="lDDoWcWHIVTTK4VwXgrd-36" value="" style="endArrow=classic;html=1;rounded=0;exitX=1;exitY=1;exitDx=0;exitDy=0;entryX=0.049;entryY=0.266;entryDx=0;entryDy=0;entryPerimeter=0;" parent="1" source="lDDoWcWHIVTTK4VwXgrd-1" target="lDDoWcWHIVTTK4VwXgrd-38" edge="1">
          <mxGeometry relative="1" as="geometry">
            <mxPoint x="455" y="360" as="sourcePoint" />
            <mxPoint x="605" y="390" as="targetPoint" />
          </mxGeometry>
        </mxCell>
        <mxCell id="lDDoWcWHIVTTK4VwXgrd-37" value="foaf:homepage" style="edgeLabel;resizable=0;html=1;;align=center;verticalAlign=middle;fontSize=9;" parent="lDDoWcWHIVTTK4VwXgrd-36" connectable="0" vertex="1">
          <mxGeometry relative="1" as="geometry" />
        </mxCell>
        <mxCell id="lDDoWcWHIVTTK4VwXgrd-38" value="personal homepage" style="ellipse;whiteSpace=wrap;html=1;fillColor=#f8cecc;strokeColor=#b85450;fontSize=10;" parent="1" vertex="1">
          <mxGeometry x="550" y="380" width="110" height="50" as="geometry" />
        </mxCell>
        <mxCell id="lDDoWcWHIVTTK4VwXgrd-39" value="Home Page&lt;div&gt;ncit:&lt;span style=&quot;font-family: &amp;quot;IBM Plex Sans&amp;quot;, Helvetica, Arial, sans-serif; text-align: start; background-color: transparent;&quot;&gt;NCIT_C19467&lt;/span&gt;&lt;/div&gt;" style="rounded=1;whiteSpace=wrap;html=1;fillColor=#6d8764;fontColor=light-dark(#FFFFFF,#171717);strokeColor=#3A5431;fontSize=10;" parent="1" vertex="1">
          <mxGeometry x="719.5" y="370" width="90" height="40" as="geometry" />
        </mxCell>
        <mxCell id="lDDoWcWHIVTTK4VwXgrd-40" value="" style="endArrow=classic;html=1;rounded=0;entryX=0;entryY=0.5;entryDx=0;entryDy=0;exitX=1;exitY=0.4;exitDx=0;exitDy=0;exitPerimeter=0;" parent="1" source="lDDoWcWHIVTTK4VwXgrd-38" target="lDDoWcWHIVTTK4VwXgrd-39" edge="1">
          <mxGeometry relative="1" as="geometry">
            <mxPoint x="715" y="406" as="sourcePoint" />
            <mxPoint x="859" y="450" as="targetPoint" />
          </mxGeometry>
        </mxCell>
        <mxCell id="lDDoWcWHIVTTK4VwXgrd-41" value="rdf:type" style="edgeLabel;resizable=0;html=1;;align=center;verticalAlign=middle;fontSize=9;" parent="lDDoWcWHIVTTK4VwXgrd-40" connectable="0" vertex="1">
          <mxGeometry relative="1" as="geometry">
            <mxPoint x="-7" y="2" as="offset" />
          </mxGeometry>
        </mxCell>
        <mxCell id="lDDoWcWHIVTTK4VwXgrd-42" value="" style="endArrow=classic;html=1;rounded=0;exitX=0.956;exitY=0.688;exitDx=0;exitDy=0;exitPerimeter=0;" parent="1" source="lDDoWcWHIVTTK4VwXgrd-38" target="lDDoWcWHIVTTK4VwXgrd-44" edge="1">
          <mxGeometry relative="1" as="geometry">
            <mxPoint x="724" y="420" as="sourcePoint" />
            <mxPoint x="929" y="460" as="targetPoint" />
          </mxGeometry>
        </mxCell>
        <mxCell id="lDDoWcWHIVTTK4VwXgrd-43" value="has-value&lt;div&gt;sio:SIO_000300&lt;/div&gt;" style="edgeLabel;resizable=0;html=1;;align=center;verticalAlign=middle;fontSize=9;" parent="lDDoWcWHIVTTK4VwXgrd-42" connectable="0" vertex="1">
          <mxGeometry relative="1" as="geometry">
            <mxPoint x="-5" y="2" as="offset" />
          </mxGeometry>
        </mxCell>
        <mxCell id="lDDoWcWHIVTTK4VwXgrd-44" value="abc123" style="rounded=0;whiteSpace=wrap;html=1;fillColor=#eeeeee;strokeColor=#36393d;fontSize=10;" parent="1" vertex="1">
          <mxGeometry x="749.5" y="430" width="45.5" height="20" as="geometry" />
        </mxCell>
        <mxCell id="lDDoWcWHIVTTK4VwXgrd-45" value="contract" style="ellipse;whiteSpace=wrap;html=1;fillColor=#f8cecc;strokeColor=#b85450;fontSize=10;" parent="1" vertex="1">
          <mxGeometry x="452" y="440" width="70" height="40" as="geometry" />
        </mxCell>
        <mxCell id="lDDoWcWHIVTTK4VwXgrd-46" value="Contractual Agreement&lt;div&gt;ncit:&lt;span style=&quot;font-family: &amp;quot;IBM Plex Sans&amp;quot;, Helvetica, Arial, sans-serif; text-align: start; background-color: transparent;&quot;&gt;NCIT_C115464&lt;/span&gt;&lt;/div&gt;" style="rounded=1;whiteSpace=wrap;html=1;fillColor=#6d8764;fontColor=light-dark(#ffffff, #171717);strokeColor=#3A5431;fontSize=10;" parent="1" vertex="1">
          <mxGeometry x="625" y="452" width="102.75" height="40" as="geometry" />
        </mxCell>
        <mxCell id="lDDoWcWHIVTTK4VwXgrd-47" value="" style="endArrow=classic;html=1;rounded=0;entryX=0;entryY=0.5;entryDx=0;entryDy=0;exitX=1;exitY=0.5;exitDx=0;exitDy=0;" parent="1" source="lDDoWcWHIVTTK4VwXgrd-45" target="lDDoWcWHIVTTK4VwXgrd-46" edge="1">
          <mxGeometry relative="1" as="geometry">
            <mxPoint x="602.75" y="480" as="sourcePoint" />
            <mxPoint x="786.75" y="530" as="targetPoint" />
          </mxGeometry>
        </mxCell>
        <mxCell id="lDDoWcWHIVTTK4VwXgrd-48" value="rdf:type" style="edgeLabel;resizable=0;html=1;;align=center;verticalAlign=middle;fontSize=9;" parent="lDDoWcWHIVTTK4VwXgrd-47" connectable="0" vertex="1">
          <mxGeometry relative="1" as="geometry">
            <mxPoint x="-7" y="-1" as="offset" />
          </mxGeometry>
        </mxCell>
        <mxCell id="lDDoWcWHIVTTK4VwXgrd-49" value="" style="endArrow=classic;html=1;rounded=0;entryX=0.5;entryY=0;entryDx=0;entryDy=0;exitX=0.667;exitY=1;exitDx=0;exitDy=0;exitPerimeter=0;" parent="1" source="lDDoWcWHIVTTK4VwXgrd-1" target="lDDoWcWHIVTTK4VwXgrd-45" edge="1">
          <mxGeometry relative="1" as="geometry">
            <mxPoint x="444" y="330" as="sourcePoint" />
            <mxPoint x="535" y="420" as="targetPoint" />
          </mxGeometry>
        </mxCell>
        <mxCell id="lDDoWcWHIVTTK4VwXgrd-50" value="has-employment-contract&lt;div&gt;cbgp:has_employment_contract&lt;/div&gt;" style="edgeLabel;resizable=0;html=1;;align=center;verticalAlign=middle;fontSize=9;" parent="lDDoWcWHIVTTK4VwXgrd-49" connectable="0" vertex="1">
          <mxGeometry relative="1" as="geometry">
            <mxPoint x="-1" y="-5" as="offset" />
          </mxGeometry>
        </mxCell>
        <mxCell id="lDDoWcWHIVTTK4VwXgrd-51" value="" style="endArrow=classic;html=1;rounded=0;exitX=0.797;exitY=0.878;exitDx=0;exitDy=0;exitPerimeter=0;entryX=0;entryY=0;entryDx=0;entryDy=0;" parent="1" source="lDDoWcWHIVTTK4VwXgrd-45" target="lDDoWcWHIVTTK4VwXgrd-53" edge="1">
          <mxGeometry relative="1" as="geometry">
            <mxPoint x="495" y="550" as="sourcePoint" />
            <mxPoint x="665" y="520" as="targetPoint" />
          </mxGeometry>
        </mxCell>
        <mxCell id="lDDoWcWHIVTTK4VwXgrd-52" value="has-start-time&lt;div&gt;sio:SIO_000680&lt;/div&gt;" style="edgeLabel;resizable=0;html=1;;align=center;verticalAlign=middle;fontSize=9;" parent="lDDoWcWHIVTTK4VwXgrd-51" connectable="0" vertex="1">
          <mxGeometry relative="1" as="geometry">
            <mxPoint x="-3" y="-6" as="offset" />
          </mxGeometry>
        </mxCell>
        <mxCell id="lDDoWcWHIVTTK4VwXgrd-53" value="date" style="ellipse;whiteSpace=wrap;html=1;fillColor=#f8cecc;strokeColor=#b85450;fontSize=10;" parent="1" vertex="1">
          <mxGeometry x="604.25" y="510" width="58" height="40" as="geometry" />
        </mxCell>
        <mxCell id="lDDoWcWHIVTTK4VwXgrd-54" value="start date&amp;nbsp;&lt;div&gt;sio:&lt;span style=&quot;font-family: &amp;quot;IBM Plex Sans&amp;quot;, Helvetica, Arial, sans-serif; text-align: start; background-color: transparent;&quot;&gt;SIO_000031&lt;/span&gt;&lt;/div&gt;" style="rounded=1;whiteSpace=wrap;html=1;fillColor=#6d8764;fontColor=light-dark(#ffffff, #171717);strokeColor=#3A5431;fontSize=10;" parent="1" vertex="1">
          <mxGeometry x="737" y="500" width="78" height="40" as="geometry" />
        </mxCell>
        <mxCell id="lDDoWcWHIVTTK4VwXgrd-55" value="" style="endArrow=classic;html=1;rounded=0;entryX=0;entryY=0.5;entryDx=0;entryDy=0;exitX=0.955;exitY=0.266;exitDx=0;exitDy=0;exitPerimeter=0;" parent="1" source="lDDoWcWHIVTTK4VwXgrd-53" target="lDDoWcWHIVTTK4VwXgrd-54" edge="1">
          <mxGeometry relative="1" as="geometry">
            <mxPoint x="750" y="545" as="sourcePoint" />
            <mxPoint x="934" y="595" as="targetPoint" />
          </mxGeometry>
        </mxCell>
        <mxCell id="lDDoWcWHIVTTK4VwXgrd-56" value="rdf:type" style="edgeLabel;resizable=0;html=1;;align=center;verticalAlign=middle;fontSize=9;" parent="lDDoWcWHIVTTK4VwXgrd-55" connectable="0" vertex="1">
          <mxGeometry relative="1" as="geometry">
            <mxPoint x="-7" y="-1" as="offset" />
          </mxGeometry>
        </mxCell>
        <mxCell id="lDDoWcWHIVTTK4VwXgrd-57" value="" style="endArrow=classic;html=1;rounded=0;exitX=0.963;exitY=0.69;exitDx=0;exitDy=0;exitPerimeter=0;" parent="1" source="lDDoWcWHIVTTK4VwXgrd-53" target="lDDoWcWHIVTTK4VwXgrd-59" edge="1">
          <mxGeometry relative="1" as="geometry">
            <mxPoint x="685" y="548" as="sourcePoint" />
            <mxPoint x="1004" y="605" as="targetPoint" />
          </mxGeometry>
        </mxCell>
        <mxCell id="lDDoWcWHIVTTK4VwXgrd-58" value="has-value&lt;div&gt;sio:SIO_000300&lt;/div&gt;" style="edgeLabel;resizable=0;html=1;;align=center;verticalAlign=middle;fontSize=9;" parent="lDDoWcWHIVTTK4VwXgrd-57" connectable="0" vertex="1">
          <mxGeometry relative="1" as="geometry">
            <mxPoint x="-3" as="offset" />
          </mxGeometry>
        </mxCell>
        <mxCell id="lDDoWcWHIVTTK4VwXgrd-59" value="01/01/2001" style="rounded=0;whiteSpace=wrap;html=1;fillColor=#eeeeee;strokeColor=#36393d;fontSize=10;" parent="1" vertex="1">
          <mxGeometry x="749.5" y="560" width="60" height="20" as="geometry" />
        </mxCell>
        <mxCell id="lDDoWcWHIVTTK4VwXgrd-60" value="" style="endArrow=classic;html=1;rounded=0;exitX=0.5;exitY=1;exitDx=0;exitDy=0;entryX=0.235;entryY=0.133;entryDx=0;entryDy=0;entryPerimeter=0;" parent="1" source="lDDoWcWHIVTTK4VwXgrd-45" target="lDDoWcWHIVTTK4VwXgrd-62" edge="1">
          <mxGeometry relative="1" as="geometry">
            <mxPoint x="495" y="542" as="sourcePoint" />
            <mxPoint x="569" y="577" as="targetPoint" />
          </mxGeometry>
        </mxCell>
        <mxCell id="lDDoWcWHIVTTK4VwXgrd-61" value="has-end-time&lt;div&gt;sio:SIO_000681&lt;/div&gt;" style="edgeLabel;resizable=0;html=1;;align=center;verticalAlign=middle;fontSize=9;" parent="lDDoWcWHIVTTK4VwXgrd-60" connectable="0" vertex="1">
          <mxGeometry relative="1" as="geometry">
            <mxPoint x="9" y="7" as="offset" />
          </mxGeometry>
        </mxCell>
        <mxCell id="lDDoWcWHIVTTK4VwXgrd-62" value="date" style="ellipse;whiteSpace=wrap;html=1;fillColor=#f8cecc;strokeColor=#b85450;fontSize=10;" parent="1" vertex="1">
          <mxGeometry x="537" y="550" width="58" height="40" as="geometry" />
        </mxCell>
        <mxCell id="lDDoWcWHIVTTK4VwXgrd-63" value="end date&amp;nbsp;&lt;div&gt;sio:&lt;span style=&quot;font-family: &amp;quot;IBM Plex Sans&amp;quot;, Helvetica, Arial, sans-serif; text-align: start; background-color: transparent;&quot;&gt;SIO_000032&lt;/span&gt;&lt;/div&gt;" style="rounded=1;whiteSpace=wrap;html=1;fillColor=#6d8764;fontColor=light-dark(#ffffff, #171717);strokeColor=#3A5431;fontSize=10;" parent="1" vertex="1">
          <mxGeometry x="662.25" y="580" width="78" height="40" as="geometry" />
        </mxCell>
        <mxCell id="lDDoWcWHIVTTK4VwXgrd-64" value="" style="endArrow=classic;html=1;rounded=0;entryX=0;entryY=0.5;entryDx=0;entryDy=0;exitX=0.931;exitY=0.732;exitDx=0;exitDy=0;exitPerimeter=0;" parent="1" source="lDDoWcWHIVTTK4VwXgrd-62" target="lDDoWcWHIVTTK4VwXgrd-63" edge="1">
          <mxGeometry relative="1" as="geometry">
            <mxPoint x="654" y="602" as="sourcePoint" />
            <mxPoint x="838" y="652" as="targetPoint" />
          </mxGeometry>
        </mxCell>
        <mxCell id="lDDoWcWHIVTTK4VwXgrd-65" value="rdf:type" style="edgeLabel;resizable=0;html=1;;align=center;verticalAlign=middle;fontSize=9;" parent="lDDoWcWHIVTTK4VwXgrd-64" connectable="0" vertex="1">
          <mxGeometry relative="1" as="geometry">
            <mxPoint x="-7" y="-1" as="offset" />
          </mxGeometry>
        </mxCell>
        <mxCell id="lDDoWcWHIVTTK4VwXgrd-66" value="" style="endArrow=classic;html=1;rounded=0;exitX=0.5;exitY=1;exitDx=0;exitDy=0;" parent="1" source="lDDoWcWHIVTTK4VwXgrd-62" target="lDDoWcWHIVTTK4VwXgrd-68" edge="1">
          <mxGeometry relative="1" as="geometry">
            <mxPoint x="589" y="605" as="sourcePoint" />
            <mxPoint x="908" y="662" as="targetPoint" />
          </mxGeometry>
        </mxCell>
        <mxCell id="lDDoWcWHIVTTK4VwXgrd-67" value="has-value&lt;div&gt;sio:SIO_000300&lt;/div&gt;" style="edgeLabel;resizable=0;html=1;;align=center;verticalAlign=middle;fontSize=9;" parent="lDDoWcWHIVTTK4VwXgrd-66" connectable="0" vertex="1">
          <mxGeometry relative="1" as="geometry">
            <mxPoint x="-5" y="-5" as="offset" />
          </mxGeometry>
        </mxCell>
        <mxCell id="lDDoWcWHIVTTK4VwXgrd-68" value="31/12/2030" style="rounded=0;whiteSpace=wrap;html=1;fillColor=#eeeeee;strokeColor=#36393d;fontSize=10;" parent="1" vertex="1">
          <mxGeometry x="614.5" y="630" width="60" height="20" as="geometry" />
        </mxCell>
        <mxCell id="lDDoWcWHIVTTK4VwXgrd-69" value="" style="endArrow=classic;html=1;rounded=0;exitX=0.404;exitY=1.04;exitDx=0;exitDy=0;entryX=0.5;entryY=0;entryDx=0;entryDy=0;exitPerimeter=0;" parent="1" source="lDDoWcWHIVTTK4VwXgrd-1" target="lDDoWcWHIVTTK4VwXgrd-71" edge="1">
          <mxGeometry relative="1" as="geometry">
            <mxPoint x="415" y="440" as="sourcePoint" />
            <mxPoint x="415" y="490" as="targetPoint" />
          </mxGeometry>
        </mxCell>
        <mxCell id="lDDoWcWHIVTTK4VwXgrd-70" value="is-member-of&lt;div&gt;sio:&lt;span style=&quot;font-family: &amp;quot;IBM Plex Sans&amp;quot;, Helvetica, Arial, sans-serif; text-align: start; text-wrap-mode: wrap; background-color: light-dark(#ffffff, var(--ge-dark-color, #121212));&quot;&gt;SIO_000095&lt;/span&gt;&lt;/div&gt;" style="edgeLabel;resizable=0;html=1;;align=center;verticalAlign=middle;fontSize=9;fontColor=#090909;" parent="lDDoWcWHIVTTK4VwXgrd-69" connectable="0" vertex="1">
          <mxGeometry relative="1" as="geometry">
            <mxPoint x="-17" y="21" as="offset" />
          </mxGeometry>
        </mxCell>
        <mxCell id="lDDoWcWHIVTTK4VwXgrd-71" value="working group" style="ellipse;whiteSpace=wrap;html=1;fillColor=#f8cecc;strokeColor=#b85450;fontSize=10;" parent="1" vertex="1">
          <mxGeometry x="329" y="440" width="80" height="40" as="geometry" />
        </mxCell>
        <mxCell id="lDDoWcWHIVTTK4VwXgrd-72" value="Team&amp;nbsp;&lt;div&gt;ncit.&lt;span style=&quot;font-family: &amp;quot;IBM Plex Sans&amp;quot;, Helvetica, Arial, sans-serif; text-align: start; background-color: transparent;&quot;&gt;NCIT_C86041&lt;/span&gt;&lt;/div&gt;" style="rounded=1;whiteSpace=wrap;html=1;fillColor=#6d8764;fontColor=light-dark(#FBFBFB,#171717);strokeColor=#3A5431;fontSize=10;" parent="1" vertex="1">
          <mxGeometry x="265" y="540" width="90" height="40" as="geometry" />
        </mxCell>
        <mxCell id="lDDoWcWHIVTTK4VwXgrd-73" value="" style="endArrow=classic;html=1;rounded=0;entryX=0.5;entryY=0;entryDx=0;entryDy=0;" parent="1" target="lDDoWcWHIVTTK4VwXgrd-72" edge="1" source="lDDoWcWHIVTTK4VwXgrd-71">
          <mxGeometry relative="1" as="geometry">
            <mxPoint x="405" y="526" as="sourcePoint" />
            <mxPoint x="498" y="560" as="targetPoint" />
          </mxGeometry>
        </mxCell>
        <mxCell id="lDDoWcWHIVTTK4VwXgrd-74" value="rdf:type" style="edgeLabel;resizable=0;html=1;;align=center;verticalAlign=middle;fontSize=9;" parent="lDDoWcWHIVTTK4VwXgrd-73" connectable="0" vertex="1">
          <mxGeometry relative="1" as="geometry">
            <mxPoint x="-7" y="-1" as="offset" />
          </mxGeometry>
        </mxCell>
        <mxCell id="lDDoWcWHIVTTK4VwXgrd-75" value="" style="endArrow=classic;html=1;rounded=0;exitX=0.76;exitY=0.976;exitDx=0;exitDy=0;entryX=0.5;entryY=0;entryDx=0;entryDy=0;exitPerimeter=0;" parent="1" source="lDDoWcWHIVTTK4VwXgrd-71" target="lDDoWcWHIVTTK4VwXgrd-77" edge="1">
          <mxGeometry relative="1" as="geometry">
            <mxPoint x="425" y="538" as="sourcePoint" />
            <mxPoint x="495" y="630" as="targetPoint" />
          </mxGeometry>
        </mxCell>
        <mxCell id="lDDoWcWHIVTTK4VwXgrd-76" value="has-value&lt;div&gt;sio:SIO_000300&lt;/div&gt;" style="edgeLabel;resizable=0;html=1;;align=center;verticalAlign=middle;fontSize=9;" parent="lDDoWcWHIVTTK4VwXgrd-75" connectable="0" vertex="1">
          <mxGeometry relative="1" as="geometry">
            <mxPoint x="-5" y="-10" as="offset" />
          </mxGeometry>
        </mxCell>
        <mxCell id="lDDoWcWHIVTTK4VwXgrd-77" value="piname_name" style="rounded=0;whiteSpace=wrap;html=1;fillColor=#eeeeee;strokeColor=#36393d;fontSize=10;" parent="1" vertex="1">
          <mxGeometry x="425" y="540" width="80" height="20" as="geometry" />
        </mxCell>
        <mxCell id="lDDoWcWHIVTTK4VwXgrd-78" value="" style="endArrow=classic;html=1;rounded=0;exitX=0.24;exitY=0.888;exitDx=0;exitDy=0;exitPerimeter=0;entryX=0.714;entryY=0.062;entryDx=0;entryDy=0;entryPerimeter=0;" parent="1" source="lDDoWcWHIVTTK4VwXgrd-1" edge="1" target="lDDoWcWHIVTTK4VwXgrd-80">
          <mxGeometry relative="1" as="geometry">
            <mxPoint x="245" y="410" as="sourcePoint" />
            <mxPoint x="335" y="480" as="targetPoint" />
          </mxGeometry>
        </mxCell>
        <mxCell id="lDDoWcWHIVTTK4VwXgrd-79" value="has-role&lt;div&gt;sio:&lt;span style=&quot;font-family: &amp;quot;IBM Plex Sans&amp;quot;, Helvetica, Arial, sans-serif; text-align: start; text-wrap-mode: wrap; background-color: light-dark(#ffffff, var(--ge-dark-color, #121212));&quot;&gt;SIO_000228&lt;/span&gt;&lt;/div&gt;" style="edgeLabel;resizable=0;html=1;;align=center;verticalAlign=middle;fontSize=9;fontColor=#070707;" parent="lDDoWcWHIVTTK4VwXgrd-78" connectable="0" vertex="1">
          <mxGeometry relative="1" as="geometry">
            <mxPoint x="-16" as="offset" />
          </mxGeometry>
        </mxCell>
        <mxCell id="lDDoWcWHIVTTK4VwXgrd-80" value="role" style="ellipse;whiteSpace=wrap;html=1;fillColor=#f8cecc;strokeColor=#b85450;fontSize=10;" parent="1" vertex="1">
          <mxGeometry x="255" y="410" width="70" height="40" as="geometry" />
        </mxCell>
        <mxCell id="lDDoWcWHIVTTK4VwXgrd-83" value="role&lt;div&gt;sio:&lt;span style=&quot;font-family: &amp;quot;IBM Plex Sans&amp;quot;, Helvetica, Arial, sans-serif; text-align: start; background-color: transparent;&quot;&gt;SIO_000016&lt;/span&gt;&lt;/div&gt;" style="rounded=1;whiteSpace=wrap;html=1;fillColor=#6d8764;fontColor=light-dark(#ffffff, #171717);strokeColor=#3A5431;fontSize=10;" parent="1" vertex="1">
          <mxGeometry x="125" y="460" width="80" height="40" as="geometry" />
        </mxCell>
        <mxCell id="lDDoWcWHIVTTK4VwXgrd-84" value="" style="endArrow=classic;html=1;rounded=0;entryX=1;entryY=0.25;entryDx=0;entryDy=0;exitX=0;exitY=1;exitDx=0;exitDy=0;" parent="1" source="lDDoWcWHIVTTK4VwXgrd-80" target="lDDoWcWHIVTTK4VwXgrd-83" edge="1">
          <mxGeometry relative="1" as="geometry">
            <mxPoint x="187" y="550" as="sourcePoint" />
            <mxPoint x="278" y="580" as="targetPoint" />
          </mxGeometry>
        </mxCell>
        <mxCell id="lDDoWcWHIVTTK4VwXgrd-85" value="rdf:type" style="edgeLabel;resizable=0;html=1;;align=center;verticalAlign=middle;fontSize=9;" parent="lDDoWcWHIVTTK4VwXgrd-84" connectable="0" vertex="1">
          <mxGeometry relative="1" as="geometry">
            <mxPoint x="10" y="-7" as="offset" />
          </mxGeometry>
        </mxCell>
        <mxCell id="lDDoWcWHIVTTK4VwXgrd-86" value="" style="endArrow=classic;html=1;rounded=0;exitX=0.5;exitY=1;exitDx=0;exitDy=0;entryX=0.5;entryY=0;entryDx=0;entryDy=0;" parent="1" source="lDDoWcWHIVTTK4VwXgrd-80" target="lDDoWcWHIVTTK4VwXgrd-88" edge="1">
          <mxGeometry relative="1" as="geometry">
            <mxPoint x="205" y="552" as="sourcePoint" />
            <mxPoint x="275" y="650" as="targetPoint" />
          </mxGeometry>
        </mxCell>
        <mxCell id="lDDoWcWHIVTTK4VwXgrd-87" value="has-value&lt;div&gt;sio:SIO_000300&lt;/div&gt;" style="edgeLabel;resizable=0;html=1;;align=center;verticalAlign=middle;fontSize=9;" parent="lDDoWcWHIVTTK4VwXgrd-86" connectable="0" vertex="1">
          <mxGeometry relative="1" as="geometry">
            <mxPoint x="8" y="-10" as="offset" />
          </mxGeometry>
        </mxCell>
        <mxCell id="lDDoWcWHIVTTK4VwXgrd-88" value="Principal Investigator" style="rounded=0;whiteSpace=wrap;html=1;fillColor=#eeeeee;strokeColor=#36393d;fontSize=10;" parent="1" vertex="1">
          <mxGeometry x="175" y="510" width="100" height="20" as="geometry" />
        </mxCell>
        <mxCell id="lDDoWcWHIVTTK4VwXgrd-89" value="" style="endArrow=classic;html=1;rounded=0;exitX=0.5;exitY=1;exitDx=0;exitDy=0;entryX=0.5;entryY=0;entryDx=0;entryDy=0;" parent="1" source="lDDoWcWHIVTTK4VwXgrd-71" target="lDDoWcWHIVTTK4VwXgrd-91" edge="1">
          <mxGeometry relative="1" as="geometry">
            <mxPoint x="285" y="620" as="sourcePoint" />
            <mxPoint x="435" y="670" as="targetPoint" />
          </mxGeometry>
        </mxCell>
        <mxCell id="lDDoWcWHIVTTK4VwXgrd-90" value="is-part-of&lt;div&gt;sio:&lt;span style=&quot;font-family: &amp;quot;IBM Plex Sans&amp;quot;, Helvetica, Arial, sans-serif; text-align: start; text-wrap-mode: wrap; background-color: light-dark(#ffffff, var(--ge-dark-color, #121212));&quot;&gt;SIO_000068&lt;/span&gt;&lt;/div&gt;" style="edgeLabel;resizable=0;html=1;;align=center;verticalAlign=middle;fontSize=9;fontColor=#010101;" parent="lDDoWcWHIVTTK4VwXgrd-89" connectable="0" vertex="1">
          <mxGeometry relative="1" as="geometry">
            <mxPoint y="-5" as="offset" />
          </mxGeometry>
        </mxCell>
        <mxCell id="lDDoWcWHIVTTK4VwXgrd-91" value="department" style="ellipse;whiteSpace=wrap;html=1;fillColor=#f8cecc;strokeColor=#b85450;fontSize=10;" parent="1" vertex="1">
          <mxGeometry x="355" y="585" width="80" height="40" as="geometry" />
        </mxCell>
        <mxCell id="lDDoWcWHIVTTK4VwXgrd-94" value="Department&lt;div&gt;ncit:&lt;span style=&quot;font-family: &amp;quot;IBM Plex Sans&amp;quot;, Helvetica, Arial, sans-serif; text-align: start; background-color: transparent;&quot;&gt;NCIT_C42671&lt;/span&gt;&lt;/div&gt;" style="rounded=1;whiteSpace=wrap;html=1;fillColor=#6d8764;fontColor=light-dark(#fbf9f9, #171717);strokeColor=#3A5431;fontSize=10;" parent="1" vertex="1">
          <mxGeometry x="467" y="630" width="98" height="40" as="geometry" />
        </mxCell>
        <mxCell id="lDDoWcWHIVTTK4VwXgrd-95" value="" style="endArrow=classic;html=1;rounded=0;entryX=0;entryY=0.5;entryDx=0;entryDy=0;exitX=1;exitY=1;exitDx=0;exitDy=0;" parent="1" source="lDDoWcWHIVTTK4VwXgrd-91" target="lDDoWcWHIVTTK4VwXgrd-94" edge="1">
          <mxGeometry relative="1" as="geometry">
            <mxPoint x="489.75" y="720" as="sourcePoint" />
            <mxPoint x="734.75" y="782" as="targetPoint" />
          </mxGeometry>
        </mxCell>
        <mxCell id="lDDoWcWHIVTTK4VwXgrd-96" value="rdf:type" style="edgeLabel;resizable=0;html=1;;align=center;verticalAlign=middle;fontSize=9;" parent="lDDoWcWHIVTTK4VwXgrd-95" connectable="0" vertex="1">
          <mxGeometry relative="1" as="geometry">
            <mxPoint x="-7" y="-1" as="offset" />
          </mxGeometry>
        </mxCell>
        <mxCell id="lDDoWcWHIVTTK4VwXgrd-97" value="" style="endArrow=classic;html=1;rounded=0;exitX=0.051;exitY=0.682;exitDx=0;exitDy=0;exitPerimeter=0;" parent="1" source="lDDoWcWHIVTTK4VwXgrd-91" target="lDDoWcWHIVTTK4VwXgrd-99" edge="1">
          <mxGeometry relative="1" as="geometry">
            <mxPoint x="487.75" y="728" as="sourcePoint" />
            <mxPoint x="804.75" y="792" as="targetPoint" />
          </mxGeometry>
        </mxCell>
        <mxCell id="lDDoWcWHIVTTK4VwXgrd-98" value="has-value&lt;div&gt;sio:SIO_000300&lt;/div&gt;" style="edgeLabel;resizable=0;html=1;;align=center;verticalAlign=middle;fontSize=9;" parent="lDDoWcWHIVTTK4VwXgrd-97" connectable="0" vertex="1">
          <mxGeometry relative="1" as="geometry">
            <mxPoint x="2" as="offset" />
          </mxGeometry>
        </mxCell>
        <mxCell id="lDDoWcWHIVTTK4VwXgrd-99" value="Bioinformatics" style="rounded=0;whiteSpace=wrap;html=1;fillColor=#eeeeee;strokeColor=#36393d;fontSize=10;" parent="1" vertex="1">
          <mxGeometry x="220" y="650" width="81" height="20" as="geometry" />
        </mxCell>
        <mxCell id="lDDoWcWHIVTTK4VwXgrd-106" value="" style="endArrow=classic;html=1;rounded=0;exitX=0.034;exitY=0.734;exitDx=0;exitDy=0;entryX=0.967;entryY=0.37;entryDx=0;entryDy=0;entryPerimeter=0;exitPerimeter=0;" parent="1" source="lDDoWcWHIVTTK4VwXgrd-1" target="lDDoWcWHIVTTK4VwXgrd-108" edge="1">
          <mxGeometry relative="1" as="geometry">
            <mxPoint x="195" y="480" as="sourcePoint" />
            <mxPoint x="235" y="440" as="targetPoint" />
          </mxGeometry>
        </mxCell>
        <mxCell id="lDDoWcWHIVTTK4VwXgrd-107" value="works-in-project&lt;div&gt;cbgp:works_in_project&lt;/div&gt;" style="edgeLabel;resizable=0;html=1;;align=center;verticalAlign=middle;fontSize=9;" parent="lDDoWcWHIVTTK4VwXgrd-106" connectable="0" vertex="1">
          <mxGeometry relative="1" as="geometry">
            <mxPoint x="3" y="-6" as="offset" />
          </mxGeometry>
        </mxCell>
        <mxCell id="lDDoWcWHIVTTK4VwXgrd-108" value="__projectid" style="ellipse;whiteSpace=wrap;html=1;fillColor=#f8cecc;strokeColor=#b85450;fontSize=10;" parent="1" vertex="1">
          <mxGeometry x="185" y="350" width="70" height="40" as="geometry" />
        </mxCell>
        <mxCell id="lDDoWcWHIVTTK4VwXgrd-109" value="" style="endArrow=classic;html=1;rounded=0;exitX=0;exitY=0.5;exitDx=0;exitDy=0;entryX=1;entryY=0.5;entryDx=0;entryDy=0;" parent="1" source="lDDoWcWHIVTTK4VwXgrd-1" target="lDDoWcWHIVTTK4VwXgrd-113" edge="1">
          <mxGeometry relative="1" as="geometry">
            <mxPoint x="345" y="278" as="sourcePoint" />
            <mxPoint x="215" y="360" as="targetPoint" />
          </mxGeometry>
        </mxCell>
        <mxCell id="lDDoWcWHIVTTK4VwXgrd-110" value="is-author-of&lt;div&gt;cbgp:is_author_of&lt;/div&gt;" style="edgeLabel;resizable=0;html=1;;align=center;verticalAlign=middle;fontSize=9;" parent="lDDoWcWHIVTTK4VwXgrd-109" connectable="0" vertex="1">
          <mxGeometry relative="1" as="geometry">
            <mxPoint x="3" y="-1" as="offset" />
          </mxGeometry>
        </mxCell>
        <mxCell id="lDDoWcWHIVTTK4VwXgrd-113" value="publication" style="ellipse;whiteSpace=wrap;html=1;fillColor=#f8cecc;strokeColor=#b85450;fontSize=10;" parent="1" vertex="1">
          <mxGeometry x="175" y="270" width="70" height="40" as="geometry" />
        </mxCell>
        <mxCell id="yQX6r82u_685FqVslnt7-1" value="" style="endArrow=classic;html=1;rounded=0;exitX=0;exitY=0;exitDx=0;exitDy=0;entryX=0.933;entryY=0.738;entryDx=0;entryDy=0;entryPerimeter=0;" edge="1" parent="1" source="lDDoWcWHIVTTK4VwXgrd-1" target="yQX6r82u_685FqVslnt7-3">
          <mxGeometry relative="1" as="geometry">
            <mxPoint x="209" y="220" as="sourcePoint" />
            <mxPoint x="225" y="260" as="targetPoint" />
          </mxGeometry>
        </mxCell>
        <mxCell id="yQX6r82u_685FqVslnt7-2" value="has-work-space&lt;div&gt;cbgp:has_work_space&lt;/div&gt;" style="edgeLabel;resizable=0;html=1;;align=center;verticalAlign=middle;fontSize=9;" connectable="0" vertex="1" parent="yQX6r82u_685FqVslnt7-1">
          <mxGeometry relative="1" as="geometry" />
        </mxCell>
        <mxCell id="yQX6r82u_685FqVslnt7-3" value="work space" style="ellipse;whiteSpace=wrap;html=1;fillColor=#f8cecc;strokeColor=#b85450;fontSize=10;" vertex="1" parent="1">
          <mxGeometry x="225.5" y="210" width="70" height="40" as="geometry" />
        </mxCell>
        <mxCell id="yQX6r82u_685FqVslnt7-4" value="" style="endArrow=classic;html=1;rounded=0;exitX=0.67;exitY=0.016;exitDx=0;exitDy=0;exitPerimeter=0;entryX=0.5;entryY=1;entryDx=0;entryDy=0;" edge="1" parent="1" source="yQX6r82u_685FqVslnt7-3" target="yQX6r82u_685FqVslnt7-6">
          <mxGeometry relative="1" as="geometry">
            <mxPoint x="170" y="180" as="sourcePoint" />
            <mxPoint x="270" y="180" as="targetPoint" />
          </mxGeometry>
        </mxCell>
        <mxCell id="yQX6r82u_685FqVslnt7-5" value="rdf:type" style="edgeLabel;resizable=0;html=1;;align=center;verticalAlign=middle;fontSize=9;" connectable="0" vertex="1" parent="yQX6r82u_685FqVslnt7-4">
          <mxGeometry relative="1" as="geometry" />
        </mxCell>
        <mxCell id="yQX6r82u_685FqVslnt7-6" value="Worksite&lt;div&gt;ncit:&lt;span style=&quot;font-family: &amp;quot;IBM Plex Sans&amp;quot;, Helvetica, Arial, sans-serif; text-align: start; background-color: transparent;&quot;&gt;NCIT_C17556&lt;/span&gt;&lt;/div&gt;" style="rounded=1;whiteSpace=wrap;html=1;fillColor=#6d8764;fontColor=light-dark(#f7f7f7, #1a1a1a);strokeColor=#3A5431;fontSize=10;" vertex="1" parent="1">
          <mxGeometry x="265" y="140" width="90" height="40" as="geometry" />
        </mxCell>
        <mxCell id="yQX6r82u_685FqVslnt7-7" value="" style="endArrow=classic;html=1;rounded=0;exitX=0.271;exitY=0;exitDx=0;exitDy=0;exitPerimeter=0;" edge="1" parent="1" target="yQX6r82u_685FqVslnt7-9" source="yQX6r82u_685FqVslnt7-3">
          <mxGeometry relative="1" as="geometry">
            <mxPoint x="80" y="230" as="sourcePoint" />
            <mxPoint x="135" y="200" as="targetPoint" />
          </mxGeometry>
        </mxCell>
        <mxCell id="yQX6r82u_685FqVslnt7-8" value="has-value&lt;div&gt;sio:SIO_000300&lt;/div&gt;" style="edgeLabel;resizable=0;html=1;;align=center;verticalAlign=middle;fontSize=9;" connectable="0" vertex="1" parent="yQX6r82u_685FqVslnt7-7">
          <mxGeometry relative="1" as="geometry">
            <mxPoint x="8" as="offset" />
          </mxGeometry>
        </mxCell>
        <mxCell id="yQX6r82u_685FqVslnt7-9" value="X floor, Y office" style="rounded=0;whiteSpace=wrap;html=1;fillColor=#eeeeee;strokeColor=#36393d;fontSize=10;" vertex="1" parent="1">
          <mxGeometry x="150" y="150" width="80" height="20" as="geometry" />
        </mxCell>
        <mxCell id="yQX6r82u_685FqVslnt7-10" value="" style="endArrow=classic;html=1;rounded=0;entryX=1;entryY=0.5;entryDx=0;entryDy=0;" edge="1" parent="1" target="yQX6r82u_685FqVslnt7-12" source="lDDoWcWHIVTTK4VwXgrd-113">
          <mxGeometry relative="1" as="geometry">
            <mxPoint x="32" y="443.5" as="sourcePoint" />
            <mxPoint x="65" y="350" as="targetPoint" />
          </mxGeometry>
        </mxCell>
        <mxCell id="yQX6r82u_685FqVslnt7-11" value="has-identifier&lt;div&gt;sio:&lt;span style=&quot;font-family: &amp;quot;IBM Plex Sans&amp;quot;, Helvetica, Arial, sans-serif; text-align: start; text-wrap-mode: wrap; background-color: light-dark(#ffffff, var(--ge-dark-color, #121212));&quot;&gt;SIO_000671&lt;/span&gt;&lt;/div&gt;" style="edgeLabel;resizable=0;html=1;;align=center;verticalAlign=middle;fontSize=9;fontColor=light-dark(#0a0a0a, #ededed);" connectable="0" vertex="1" parent="yQX6r82u_685FqVslnt7-10">
          <mxGeometry relative="1" as="geometry">
            <mxPoint x="3" as="offset" />
          </mxGeometry>
        </mxCell>
        <mxCell id="yQX6r82u_685FqVslnt7-12" value="__id" style="ellipse;whiteSpace=wrap;html=1;fillColor=#f8cecc;strokeColor=#b85450;fontSize=10;" vertex="1" parent="1">
          <mxGeometry x="15" y="250" width="60" height="40" as="geometry" />
        </mxCell>
        <mxCell id="yQX6r82u_685FqVslnt7-16" value="" style="endArrow=classic;html=1;rounded=0;entryX=0.25;entryY=1;entryDx=0;entryDy=0;exitX=0.702;exitY=0.062;exitDx=0;exitDy=0;exitPerimeter=0;" edge="1" parent="1" target="yQX6r82u_685FqVslnt7-18" source="yQX6r82u_685FqVslnt7-12">
          <mxGeometry relative="1" as="geometry">
            <mxPoint x="65" y="270" as="sourcePoint" />
            <mxPoint x="110" y="261" as="targetPoint" />
          </mxGeometry>
        </mxCell>
        <mxCell id="yQX6r82u_685FqVslnt7-17" value="rdf:type" style="edgeLabel;resizable=0;html=1;;align=center;verticalAlign=middle;fontSize=9;" connectable="0" vertex="1" parent="yQX6r82u_685FqVslnt7-16">
          <mxGeometry relative="1" as="geometry">
            <mxPoint x="-4" y="3" as="offset" />
          </mxGeometry>
        </mxCell>
        <mxCell id="yQX6r82u_685FqVslnt7-18" value="&lt;font style=&quot;color: rgb(255, 255, 255);&quot;&gt;&lt;span style=&quot;font-family: &amp;quot;IBM Plex Sans&amp;quot;, Helvetica, Arial, sans-serif; text-align: start;&quot;&gt;&lt;font style=&quot;color: light-dark(rgb(252, 252, 252), rgb(202, 202, 202));&quot;&gt;digital object identifier (doi)&lt;/font&gt;&lt;/span&gt;&lt;br&gt;&lt;/font&gt;&lt;div style=&quot;color: rgb(255, 255, 255);&quot;&gt;&lt;font style=&quot;color: light-dark(rgb(255, 255, 255), rgb(237, 237, 237));&quot;&gt;dcterms:doi&lt;/font&gt;&lt;/div&gt;" style="rounded=1;whiteSpace=wrap;html=1;fillColor=#6d8764;fontColor=light-dark(#f7f7f7, #1a1a1a);strokeColor=#3A5431;fontSize=10;" vertex="1" parent="1">
          <mxGeometry x="90" y="180" width="70" height="40" as="geometry" />
        </mxCell>
        <mxCell id="yQX6r82u_685FqVslnt7-19" value="" style="endArrow=classic;html=1;rounded=0;exitX=0.396;exitY=0.043;exitDx=0;exitDy=0;exitPerimeter=0;" edge="1" parent="1" target="yQX6r82u_685FqVslnt7-21" source="yQX6r82u_685FqVslnt7-12">
          <mxGeometry relative="1" as="geometry">
            <mxPoint x="44" y="271" as="sourcePoint" />
            <mxPoint x="-25" y="281" as="targetPoint" />
          </mxGeometry>
        </mxCell>
        <mxCell id="yQX6r82u_685FqVslnt7-20" value="has-value&lt;div&gt;sio:SIO_000300&lt;/div&gt;" style="edgeLabel;resizable=0;html=1;;align=center;verticalAlign=middle;fontSize=9;" connectable="0" vertex="1" parent="yQX6r82u_685FqVslnt7-19">
          <mxGeometry relative="1" as="geometry">
            <mxPoint x="-1" y="-2" as="offset" />
          </mxGeometry>
        </mxCell>
        <mxCell id="yQX6r82u_685FqVslnt7-21" value="&lt;span&gt;10.12345/abc&lt;/span&gt;" style="rounded=0;whiteSpace=wrap;html=1;fillColor=#eeeeee;strokeColor=#36393d;fontSize=10;" vertex="1" parent="1">
          <mxGeometry x="5" y="170" width="70" height="20" as="geometry" />
        </mxCell>
        <mxCell id="yQX6r82u_685FqVslnt7-23" value="&lt;span&gt;publication&lt;/span&gt;&lt;div&gt;sio:&lt;span style=&quot;font-family: &amp;quot;IBM Plex Sans&amp;quot;, Helvetica, Arial, sans-serif; text-align: start; background-color: transparent;&quot;&gt;SIO_000087&lt;/span&gt;&lt;/div&gt;" style="rounded=1;whiteSpace=wrap;html=1;fillColor=#6d8764;fontColor=light-dark(#ffffff, #171717);strokeColor=#3A5431;fontSize=10;" vertex="1" parent="1">
          <mxGeometry x="45" y="310" width="80" height="40" as="geometry" />
        </mxCell>
        <mxCell id="yQX6r82u_685FqVslnt7-24" value="" style="endArrow=classic;html=1;rounded=0;entryX=1;entryY=0.25;entryDx=0;entryDy=0;exitX=0;exitY=1;exitDx=0;exitDy=0;" edge="1" parent="1" target="yQX6r82u_685FqVslnt7-23" source="lDDoWcWHIVTTK4VwXgrd-113">
          <mxGeometry relative="1" as="geometry">
            <mxPoint x="170.25126265847086" y="284.00213562373096" as="sourcePoint" />
            <mxPoint x="168" y="369.86" as="targetPoint" />
          </mxGeometry>
        </mxCell>
        <mxCell id="yQX6r82u_685FqVslnt7-25" value="rdf:type" style="edgeLabel;resizable=0;html=1;;align=center;verticalAlign=middle;fontSize=9;" connectable="0" vertex="1" parent="yQX6r82u_685FqVslnt7-24">
          <mxGeometry relative="1" as="geometry">
            <mxPoint x="1" y="-1" as="offset" />
          </mxGeometry>
        </mxCell>
        <mxCell id="yQX6r82u_685FqVslnt7-27" value="&lt;span style=&quot;font-size: 9px;&quot;&gt;Project&lt;/span&gt;&lt;div style=&quot;font-size: 9px;&quot;&gt;&lt;span style=&quot;font-family: &amp;quot;IBM Plex Sans&amp;quot;, Helvetica, Arial, sans-serif; text-align: start;&quot;&gt;ncit:NCIT_C47885&lt;/span&gt;&lt;/div&gt;" style="rounded=1;whiteSpace=wrap;html=1;fillColor=#6d8764;fontColor=light-dark(#ffffff, #171717);strokeColor=#3A5431;fontSize=10;" vertex="1" parent="1">
          <mxGeometry x="35" y="370" width="80" height="40" as="geometry" />
        </mxCell>
        <mxCell id="yQX6r82u_685FqVslnt7-28" value="" style="endArrow=classic;html=1;rounded=0;entryX=1;entryY=0.5;entryDx=0;entryDy=0;exitX=0;exitY=0.5;exitDx=0;exitDy=0;" edge="1" parent="1" target="yQX6r82u_685FqVslnt7-27" source="lDDoWcWHIVTTK4VwXgrd-108">
          <mxGeometry relative="1" as="geometry">
            <mxPoint x="153" y="412" as="sourcePoint" />
            <mxPoint x="153" y="500" as="targetPoint" />
          </mxGeometry>
        </mxCell>
        <mxCell id="yQX6r82u_685FqVslnt7-29" value="rdf:type" style="edgeLabel;resizable=0;html=1;;align=center;verticalAlign=middle;fontSize=9;" connectable="0" vertex="1" parent="yQX6r82u_685FqVslnt7-28">
          <mxGeometry relative="1" as="geometry">
            <mxPoint x="1" y="-1" as="offset" />
          </mxGeometry>
        </mxCell>
        <mxCell id="yQX6r82u_685FqVslnt7-30" value="" style="endArrow=classic;html=1;rounded=0;exitX=0;exitY=1;exitDx=0;exitDy=0;entryX=0.5;entryY=0;entryDx=0;entryDy=0;" edge="1" parent="1" target="yQX6r82u_685FqVslnt7-32" source="lDDoWcWHIVTTK4VwXgrd-108">
          <mxGeometry relative="1" as="geometry">
            <mxPoint x="185" y="420" as="sourcePoint" />
            <mxPoint x="150" y="570" as="targetPoint" />
          </mxGeometry>
        </mxCell>
        <mxCell id="yQX6r82u_685FqVslnt7-31" value="has-value&lt;div&gt;sio:SIO_000300&lt;/div&gt;" style="edgeLabel;resizable=0;html=1;;align=center;verticalAlign=middle;fontSize=9;" connectable="0" vertex="1" parent="yQX6r82u_685FqVslnt7-30">
          <mxGeometry relative="1" as="geometry">
            <mxPoint x="12" y="-7" as="offset" />
          </mxGeometry>
        </mxCell>
        <mxCell id="yQX6r82u_685FqVslnt7-32" value="123abc" style="rounded=0;whiteSpace=wrap;html=1;fillColor=#eeeeee;strokeColor=#36393d;fontSize=10;" vertex="1" parent="1">
          <mxGeometry x="95" y="430" width="55" height="20" as="geometry" />
        </mxCell>
        <mxCell id="yQX6r82u_685FqVslnt7-38" value="&lt;font style=&quot;color: light-dark(rgb(8, 8, 8), rgb(237, 237, 237));&quot;&gt;rdf:&amp;nbsp;&lt;span style=&quot;font-family: &amp;quot;IBM Plex Sans&amp;quot;, Helvetica, Arial, sans-serif;&quot;&gt;http://www.w3.org/1999/02/22-rdf-syntax-ns#&lt;/span&gt;&lt;/font&gt;&lt;div&gt;&lt;font style=&quot;color: light-dark(rgb(8, 8, 8), rgb(237, 237, 237));&quot;&gt;sio:&amp;nbsp;&lt;span style=&quot;font-family: &amp;quot;IBM Plex Sans&amp;quot;, Helvetica, Arial, sans-serif; background-color: transparent;&quot;&gt;http://semanticscience.org/resource/&lt;/span&gt;&lt;/font&gt;&lt;/div&gt;&lt;div&gt;&lt;font style=&quot;color: light-dark(rgb(8, 8, 8), rgb(237, 237, 237));&quot;&gt;ncit:&amp;nbsp;&lt;span style=&quot;font-family: &amp;quot;IBM Plex Sans&amp;quot;, Helvetica, Arial, sans-serif; background-color: transparent;&quot;&gt;http://purl.obolibrary.org/obo/&lt;/span&gt;&lt;/font&gt;&lt;/div&gt;&lt;div&gt;&lt;font style=&quot;color: light-dark(rgb(8, 8, 8), rgb(237, 237, 237));&quot;&gt;cbgp:&amp;nbsp;&lt;span style=&quot;font-family: &amp;quot;IBM Plex Sans&amp;quot;, Helvetica, Arial, sans-serif; background-color: transparent;&quot;&gt;https://w3id.org/CBGP-App#&lt;/span&gt;&lt;/font&gt;&lt;/div&gt;&lt;div&gt;&lt;font style=&quot;color: light-dark(rgb(8, 8, 8), rgb(237, 237, 237));&quot;&gt;iao:&amp;nbsp;&lt;span style=&quot;font-family: &amp;quot;IBM Plex Sans&amp;quot;, Helvetica, Arial, sans-serif; background-color: transparent;&quot;&gt;http://purl.obolibrary.org/obo/&lt;/span&gt;&lt;/font&gt;&lt;/div&gt;&lt;div&gt;&lt;font style=&quot;color: light-dark(rgb(8, 8, 8), rgb(237, 237, 237));&quot;&gt;dcterms:&amp;nbsp;&lt;span style=&quot;font-family: &amp;quot;IBM Plex Sans&amp;quot;, Helvetica, Arial, sans-serif; background-color: transparent;&quot;&gt;http://purl.org/dc/terms/&lt;/span&gt;&lt;/font&gt;&lt;/div&gt;&lt;div&gt;&lt;font style=&quot;color: light-dark(rgb(8, 8, 8), rgb(237, 237, 237));&quot;&gt;foaf:&amp;nbsp;&lt;span style=&quot;font-family: Arial, sans-serif; background-color: rgb(255, 255, 255);&quot;&gt;http://xmlns.com/foaf/0.1&lt;/span&gt;&lt;span style=&quot;font-family: Arial, sans-serif; background-color: rgb(255, 255, 255);&quot;&gt;/&lt;/span&gt;&lt;/font&gt;&lt;/div&gt;" style="text;html=1;align=left;verticalAlign=middle;whiteSpace=wrap;rounded=0;fontSize=11;strokeColor=default;" vertex="1" parent="1">
          <mxGeometry x="25" y="20" width="240" height="100" as="geometry" />
        </mxCell>
      </root>
    </mxGraphModel>
  </diagram>
</mxfile>
